P2
40 42
255
6
4
4
3
3
3
3
3
8
2
2
4
2
2
4
2
2
3
3
2
2
3
12
2
2
3
2
3
3
2
1
3
2
5
4
3
1
4
2
1
7
3
8
3
2
3
3
3
3
11
0
1
6
1
2
2
1
2
0
0
7
1
13
1
1
3
5
0
1
3
5
2
1
0
0
2
0
2
1
1
6
6
2
3
4
1
1
0
2
1
19
10
0
1
3
3
5
3
5
5
4
7
10
3
3
3
1
8
0
2
1
1
4
3
2
0
0
0
0
2
4
2
3
8
2
6
2
33
0
0
1
1
2
3
7
5
7
12
8
11
7
7
18
6
5
4
2
3
1
3
2
1
0
6
0
3
2
11
1
1
6
3
1
2
2
2
5
2
54
0
1
4
4
8
18
8
13
16
10
11
11
12
12
9
8
7
9
7
3
12
1
3
3
1
5
1
0
0
1
1
3
1
2
3
1
1
1
4
0
3
6
5
10
9
9
14
17
20
16
18
17
17
16
14
13
12
9
7
6
3
1
4
0
0
0
2
10
4
4
62
2
1
4
2
3
1
0
4
3
5
6
9
12
13
16
18
26
21
23
24
23
23
22
21
23
16
14
12
8
6
2
1
3
0
4
1
0
3
2
22
2
1
4
2
3
0
5
3
5
9
10
13
16
19
23
25
27
31
31
32
33
33
30
30
24
22
18
15
11
7
9
4
1
4
9
1
1
0
0
2
2
1
12
8
3
2
3
7
7
10
18
20
23
26
31
37
41
45
46
48
48
45
42
38
54
27
24
20
19
12
13
6
4
0
2
1
1
2
0
6
1
5
1
6
2
3
5
8
11
15
21
24
30
36
44
54
61
69
80
78
75
71
63
56
49
41
33
32
21
20
13
8
5
5
2
10
4
2
0
1
2
1
2
2
3
6
9
11
25
24
25
35
42
55
70
94
127
150
183
199
173
140
156
95
72
58
45
34
32
22
17
11
8
4
3
5
2
0
56
0
1
1
1
3
10
16
10
13
32
26
32
43
64
88
158
235
212
184
155
185
200
174
176
192
155
90
77
55
36
26
40
18
12
7
4
1
1
2
1
2
5
2
4
5
8
9
14
21
22
32
44
62
107
195
210
167
144
136
137
152
155
178
183
198
183
189
113
67
48
37
26
20
14
9
5
3
5
2
2
6
3
1
3
3
7
12
16
20
30
39
58
100
197
133
132
165
161
163
155
110
116
137
194
197
178
158
192
111
65
46
32
23
18
12
9
5
1
2
0
2
5
3
5
5
11
12
16
28
33
49
87
171
155
123
93
91
137
156
85
75
73
134
186
168
160
76
79
146
88
56
39
26
21
15
9
7
2
1
1
4
2
12
1
7
9
24
37
33
42
62
113
131
118
46
60
80
117
105
53
52
54
59
118
111
189
125
70
152
130
73
47
66
34
17
14
6
5
2
1
4
5
2
4
11
10
25
24
37
49
83
92
137
53
42
58
64
103
113
35
38
49
57
53
37
70
124
152
138
139
91
60
43
29
20
12
9
5
2
2
5
4
4
3
7
12
19
27
35
53
74
71
86
52
49
59
81
106
133
73
76
104
34
43
40
50
87
44
73
126
105
70
44
33
22
15
8
5
2
3
2
2
1
4
8
12
20
28
40
61
59
65
68
60
62
63
67
107
95
52
73
124
55
46
60
107
95
56
66
140
146
81
50
36
23
17
10
6
2
2
2
1
2
7
8
16
21
30
42
68
59
78
68
65
73
91
112
82
74
104
123
173
128
105
83
144
148
86
74
137
143
105
54
36
25
19
10
6
3
5
5
1
1
7
10
15
23
30
43
72
55
82
79
67
129
152
120
75
93
114
156
177
174
196
118
132
135
141
124
120
136
111
57
38
26
19
10
6
2
2
2
5
2
5
13
67
18
31
43
72
53
51
65
82
108
128
94
76
97
109
148
179
175
200
198
146
86
137
119
158
141
107
58
38
25
18
11
6
4
2
2
2
1
5
12
13
21
33
44
75
60
34
50
126
93
111
111
93
131
153
146
163
170
175
189
190
137
143
184
190
156
100
58
39
29
17
13
6
3
7
1
2
1
6
9
15
22
28
42
68
108
46
40
65
65
76
73
117
67
135
141
152
162
166
160
193
173
165
193
215
140
84
53
36
24
18
17
6
6
0
2
1
2
8
6
16
18
26
40
58
148
64
32
26
39
94
43
69
76
72
152
152
152
182
162
180
163
174
179
157
105
76
48
33
23
16
10
4
2
0
4
1
1
13
67
12
19
24
34
57
94
138
31
35
48
35
68
71
60
58
131
171
186
175
183
165
165
175
171
137
95
65
44
29
23
15
8
5
2
6
3
3
1
6
6
10
16
20
32
44
62
139
134
77
106
77
76
90
72
56
143
217
203
193
176
176
166
183
156
89
84
52
38
26
21
15
8
6
6
3
10
3
1
2
5
9
13
19
31
35
51
90
155
144
131
53
28
97
104
161
196
230
219
204
171
159
163
162
147
98
64
43
32
23
15
16
18
27
6
10
3
5
3
1
4
7
12
15
24
30
41
58
95
188
183
142
97
124
126
172
199
195
211
213
177
172
161
175
117
71
56
35
25
19
15
8
11
19
1
4
5
7
6
5
5
6
9
13
18
23
33
44
60
104
156
160
152
136
156
164
171
201
204
192
182
185
181
118
75
54
39
33
21
18
10
7
2
4
3
2
2
5
11
2
2
5
8
11
14
26
24
32
47
59
79
127
142
125
121
134
150
174
196
210
191
187
103
72
54
41
38
22
32
11
6
5
2
2
1
6
3
4
4
2
3
1
5
23
11
15
19
26
48
64
55
72
84
103
118
137
159
165
155
133
107
87
63
50
39
30
23
31
16
8
5
6
2
3
2
2
5
2
1
4
3
3
18
5
7
10
15
20
22
30
37
45
53
61
67
76
76
76
74
69
62
52
43
35
30
22
17
12
8
5
1
2
2
2
6
3
4
9
2
2
2
7
4
1
9
7
10
33
61
44
30
31
37
39
44
46
48
55
48
45
41
39
33
47
31
17
15
7
5
2
2
3
4
5
5
1
2
2
2
3
3
2
2
1
1
4
8
9
13
15
23
22
26
42
28
31
34
32
32
32
27
25
24
17
15
14
6
4
2
2
2
4
1
4
1
3
3
2
3
3
2
1
3
4
4
2
3
5
9
9
12
18
19
21
21
22
22
27
23
23
20
19
14
10
9
5
4
1
1
34
3
2
8
4
9
4
2
7
2
3
3
1
2
2
6
2
6
2
7
4
10
12
11
14
14
15
19
15
22
17
15
10
9
6
4
0
2
1
1
3
5
3
2
4
4
4
4
2
2
3
2
2
2
10
1
4
2
4
4
2
8
4
6
13
9
9
13
19
11
8
13
5
4
2
5
18
0
8
3
2
1
7
2
1
2
1
4
1
1
3
1
1
6
4
5
4
3
4
2
7
5
2
3
9
3
4
20
31
9
4
1
1
2
2
5
3
4
2
2
1
2
9
3
2
4
4
6
7
8
1
1
3
4
3
27
1
1
4
3
4
1
4
2
4
3
4
13
9
3
3
2
4
1
2
1
8
2
1
1
4
4
1
6
2
2
2
8
3
1
7
9
2
1
9
5
4
3
3
3
4
1
3
2
2
26
21
3
2
2
2
1
1
2
2
3
1
1
2
2
2
2
2
7
5
3
6
5
1
2
3
7
1
2
4
2
3
3
2
4
5
2
3
2
3
8
8
10
1
2
3
1
1
2
4
4
4
4
4
3
4
5
4
3
4
2
3
5
