# 3ds Max Wavefront OBJ Exporter v0.97b - (c)2007 guruware
# File Created: 05.11.2013 01:05:00

mtllib explosion.mtl

#
# object Box004
#

v  -10.0000 0.0000 10.0000
v  -10.0000 0.0000 -10.0000
v  10.0000 0.0000 -10.0000
v  10.0000 0.0000 10.0000
v  -10.0000 20.0000 10.0000
v  10.0000 20.0000 10.0000
v  10.0000 20.0000 -10.0000
v  -10.0000 20.0000 -10.0000
# 8 vertices

vn 0.0000 -1.0000 -0.0000
vn 0.0000 1.0000 -0.0000
vn 0.0000 0.0000 1.0000
vn 1.0000 0.0000 -0.0000
vn 0.0000 0.0000 -1.0000
vn -1.0000 0.0000 -0.0000
# 6 vertex normals

vt 0.0000 0.0000 0.0000
vt 1.0000 0.0000 0.0000
vt 1.0000 1.0000 0.0000
vt 0.0000 1.0000 0.0000
vt 0.0000 0.1239 0.0000
vt 1.0000 0.1326 0.0000
vt 1.0000 1.0055 0.0000
# 7 texture coords

g Box004
usemtl 09___Default
f 1/1/1 2/2/1 3/3/1 
f 3/3/1 4/4/1 1/1/1 
f 5/5/2 6/6/2 7/7/2 
f 7/7/2 8/4/2 5/5/2 
f 1/1/3 4/2/3 6/3/3 
f 6/3/3 5/4/3 1/1/3 
f 4/1/4 3/2/4 7/3/4 
f 7/3/4 6/4/4 4/1/4 
f 3/1/5 2/2/5 8/3/5 
f 8/3/5 7/4/5 3/1/5 
f 2/1/6 1/2/6 5/3/6 
f 5/7/6 8/4/6 2/1/6 
# 12 faces

