P2
2 3
255
0
50
25
150
200
250