P2
48 42
255
47
47
47
47
47
47
47
47
47
47
47
47
47
47
47
47
47
47
47
47
47
47
47
47
47
47
47
47
47
47
47
47
47
47
47
47
47
47
47
47
47
47
47
47
47
47
47
47
47
47
47
47
47
47
47
47
47
47
47
47
47
47
47
47
47
47
47
47
47
47
47
47
47
47
47
47
47
47
47
47
47
47
47
47
47
47
47
47
47
47
47
47
47
47
47
47
47
47
47
47
47
47
47
47
47
47
47
47
47
47
47
47
47
47
47
47
47
47
47
47
47
47
47
47
47
47
47
47
47
47
47
47
47
47
47
47
47
47
47
47
47
47
47
47
47
47
47
47
47
47
47
47
47
47
47
47
47
47
47
47
47
47
47
47
47
47
47
47
47
47
47
47
47
47
47
47
47
47
47
47
47
47
47
47
47
47
47
47
47
47
47
47
47
47
47
47
47
47
47
47
47
47
47
47
47
47
47
47
47
47
47
47
47
47
47
47
47
47
47
47
47
47
47
47
47
47
47
47
47
47
47
47
47
47
47
47
47
47
47
47
47
47
47
47
47
47
47
47
47
47
47
47
47
47
47
47
47
47
47
47
47
47
47
22
25
62
27
47
47
47
47
47
47
47
47
47
47
47
47
47
47
47
47
47
47
47
47
47
47
47
47
47
47
47
47
47
47
47
47
47
47
47
47
47
37
47
47
47
47
58
37
128
212
119
142
62
47
47
47
47
47
47
47
47
47
47
47
47
47
47
47
47
47
47
47
47
47
47
47
47
47
47
47
47
47
47
47
47
47
47
47
47
37
25
37
47
47
47
58
37
85
149
119
138
66
47
47
47
47
47
47
47
47
47
47
47
47
47
47
47
47
47
47
47
47
47
47
47
47
47
47
47
37
11
47
58
37
47
47
58
36
11
11
36
47
47
47
58
22
66
200
168
62
47
47
47
47
47
47
47
47
47
47
47
47
47
47
47
47
47
47
47
47
47
47
47
47
47
47
22
47
22
8
37
47
22
58
47
37
22
8
11
47
47
47
47
22
168
200
51
47
47
47
47
47
47
47
27
47
47
47
47
47
47
47
47
47
47
47
47
47
47
47
47
37
36
58
37
11
27
11
4
25
27
37
37
47
11
22
95
119
58
25
37
57
212
200
62
27
58
11
27
47
47
25
22
25
37
47
58
58
37
37
47
47
47
47
47
47
47
47
47
47
37
11
37
37
11
11
4
4
11
11
22
95
153
237
200
200
200
189
8
168
212
212
95
95
200
237
95
58
11
17
11
25
37
47
27
11
37
37
47
47
47
47
47
47
47
47
47
47
58
47
11
25
37
17
8
4
4
11
22
119
119
95
119
119
98
98
168
200
212
200
212
128
51
47
200
200
200
189
95
11
11
11
12
27
27
27
47
47
47
47
47
47
47
47
47
47
47
58
47
22
27
11
4
22
119
189
200
200
200
189
119
22
98
149
168
230
212
218
168
62
105
69
95
189
200
200
200
153
47
4
11
22
11
37
47
47
47
47
47
47
47
47
47
47
47
25
47
37
22
8
105
200
200
200
200
153
105
116
120
131
131
127
153
146
153
66
69
131
131
131
131
105
119
189
200
200
200
17
4
8
25
47
47
47
47
47
47
47
47
47
47
47
47
37
11
22
11
95
200
200
200
189
105
153
131
131
164
200
164
120
131
164
69
120
131
120
200
200
164
131
167
105
189
200
200
153
4
22
37
47
47
47
47
47
47
47
47
47
47
47
47
47
47
22
4
153
164
200
200
105
164
120
120
200
200
200
167
120
120
120
131
131
153
116
200
200
200
164
120
167
58
200
200
200
47
25
11
22
47
47
47
47
47
47
47
47
47
47
47
47
47
47
47
200
164
200
153
153
120
120
164
200
109
105
131
120
164
120
120
164
142
142
119
153
164
200
131
131
153
119
200
200
58
4
22
27
47
47
47
47
47
47
47
47
47
47
47
47
47
37
95
200
200
200
105
164
120
120
164
95
189
189
156
120
200
120
120
167
142
237
237
189
146
153
164
120
200
58
200
200
95
8
27
37
47
47
47
47
47
47
47
47
47
47
47
47
47
25
142
200
200
189
105
164
167
153
142
237
142
146
164
200
200
131
120
164
153
98
192
146
237
142
105
164
200
58
189
200
95
37
47
47
47
47
47
47
47
47
47
47
47
47
47
47
47
22
153
200
200
142
153
200
200
105
142
119
248
197
142
200
200
164
120
164
200
95
234
134
58
153
200
200
200
105
153
200
95
25
37
37
47
47
47
47
47
47
47
47
47
47
47
47
47
22
153
164
200
119
153
200
164
200
153
105
109
128
109
200
200
164
120
164
200
109
105
153
200
200
200
164
200
105
153
200
95
22
37
37
47
47
47
47
47
47
47
47
47
47
47
27
25
28
153
200
200
119
153
153
164
200
200
200
164
164
164
200
164
164
120
164
200
200
200
200
164
200
153
95
200
58
153
200
58
22
37
47
47
47
47
47
47
47
47
47
47
47
37
25
37
11
153
200
200
142
105
119
142
200
200
200
164
200
200
200
164
200
120
164
164
164
164
164
200
200
142
153
200
47
164
200
47
37
47
47
47
47
47
47
47
47
47
47
47
58
47
37
22
11
153
200
200
153
105
119
237
153
153
153
200
200
200
164
200
164
200
200
200
164
200
200
142
153
119
119
200
58
200
153
11
47
47
47
47
47
47
47
47
47
47
47
47
27
27
37
47
37
95
200
164
189
58
95
237
142
109
119
200
142
153
200
164
164
164
164
164
200
95
153
109
62
142
105
105
142
200
47
47
47
47
47
47
47
47
47
47
47
47
47
47
47
58
47
47
37
17
200
164
200
95
105
189
189
98
150
105
142
119
153
200
164
164
164
200
153
146
95
208
189
189
116
58
200
105
27
47
47
47
47
47
47
47
47
47
47
47
47
47
47
47
47
22
11
17
95
200
200
153
105
98
237
240
251
192
149
168
98
200
200
200
200
200
109
248
204
160
237
95
105
105
153
4
11
37
58
47
47
47
47
47
47
47
47
47
47
47
47
47
47
11
22
22
12
153
200
200
47
153
119
237
237
200
231
255
215
113
109
146
160
168
204
218
193
237
95
153
95
105
4
4
8
4
22
47
58
47
47
47
47
47
47
47
47
47
47
47
27
22
11
11
4
4
105
200
153
58
153
119
237
237
189
193
193
197
200
197
197
193
189
237
189
57
200
95
4
4
8
8
12
11
11
11
25
47
47
47
47
47
47
47
47
47
47
37
22
22
11
22
11
4
4
47
153
105
105
153
95
153
178
189
189
189
189
189
178
189
146
95
95
200
95
12
11
17
22
11
11
11
37
22
11
37
47
47
47
47
47
47
47
47
47
25
22
11
22
22
8
11
8
4
4
47
8
47
164
200
153
105
105
109
105
105
105
153
200
200
153
47
17
11
11
22
11
11
11
22
11
47
25
27
47
47
47
47
47
47
47
47
37
25
25
22
11
27
22
11
17
8
4
4
8
4
4
95
153
200
200
200
200
200
153
105
58
22
17
4
17
11
11
11
37
27
11
22
36
37
47
47
47
47
47
47
47
58
47
47
47
47
22
11
36
37
37
27
25
11
8
8
4
4
4
4
4
22
58
58
11
12
4
4
11
11
27
11
8
8
22
11
11
47
22
11
22
37
47
47
47
47
47
47
47
47
47
47
36
25
37
25
37
47
37
47
27
37
11
22
22
11
8
4
22
37
47
47
37
25
17
8
8
22
25
47
37
27
25
47
37
37
47
37
27
37
47
47
47
47
47
47
47
47
47
47
37
47
47
47
37
36
47
27
37
37
37
27
22
11
11
22
37
47
47
47
37
47
11
27
11
11
47
47
47
47
47
47
47
47
47
47
47
47
47
47
47
47
47
47
47
47
47
47
47
47
58
37
27
47
36
47
47
47
22
47
11
27
11
47
47
47
47
47
47
47
27
27
22
27
27
47
47
47
47
47
47
47
47
47
47
47
47
47
47
47
47
47
47
47
47
47
47
47
47
47
58
25
47
37
47
25
47
47
11
47
37
58
47
47
47
47
47
47
47
11
37
47
22
47
47
47
47
47
47
47
47
47
47
47
47
47
47
47
47
47
47
47
47
47
47
47
47
47
47
58
47
47
47
47
47
47
47
47
47
47
47
47
47
47
47
47
58
37
47
47
47
47
47
47
47
47
47
47
47
47
47
47
47
47
47
47
47
47
47
47
47
47
47
47
47
47
47
47
47
47
47
47
47
47
47
47
47
47
47
47
47
47
47
47
47
47
47
47
47
47
47
47
47
47
47
47
47
47
47
47
47
47
47
47
47
47
47
47
47
47
47
47
47
47
47
47
47
47
47
47
47
47
47
47
47
47
47
47
47
47
47
47
47
47
47
47
47
47
47
47
47
47
47
47
47
47
47
47
47
47
47
47
47
47
47
47
47
47
47
47
47
47
47
47
47
47
47
47
47
47
47
47
47
47
47
47
47
47
47
47
47
47
47
47
47
47
47
47
47
47
47
47
47
47
47
47
47
47
47
47
47
47
