P2
2 4
255
207
127
136
57
231
44
112
235
