P2
2 4
255
35
127
234
123
100
25
75
0
