P2
2 4
255
0
122
0
122
25
50
75
100
