P2
36 27
255
130
136
139
140
142
145
143
143
143
138
127
120
123
128
126
125
126
128
129
128
122
122
124
121
122
161
201
233
250
250
223
166
127
90
76
73
143
145
149
150
142
149
143
145
143
144
144
138
129
128
127
137
139
131
125
116
110
112
111
151
227
246
229
238
251
254
255
198
179
183
157
106
114
122
127
123
121
124
121
128
135
125
123
122
125
127
121
117
114
106
101
99
103
106
158
238
255
255
255
254
254
253
237
180
169
155
183
185
125
111
125
121
130
131
119
117
110
117
119
119
119
125
123
112
104
102
99
94
95
140
173
227
253
250
249
248
243
228
229
219
180
161
152
187
128
124
132
125
113
128
122
115
118
125
128
138
138
128
121
120
111
103
107
106
128
161
165
167
215
208
190
174
185
219
241
240
251
255
247
207
117
112
112
112
108
104
117
125
126
137
141
141
140
138
132
132
127
117
119
129
156
158
160
193
217
196
182
175
205
231
246
253
253
253
254
254
119
116
113
124
116
114
119
124
137
128
130
134
138
135
133
138
126
117
110
135
151
155
185
224
227
190
175
173
188
183
237
254
254
255
255
250
109
109
118
118
118
126
123
119
124
122
122
120
129
127
124
124
117
107
102
135
155
206
250
251
252
251
182
163
187
180
245
254
254
255
242
216
113
106
99
108
104
108
102
120
114
115
104
104
117
113
109
110
109
109
106
131
191
228
241
249
246
249
250
185
183
189
245
252
254
240
200
205
112
100
99
99
103
97
105
115
115
115
109
110
107
107
101
108
115
113
98
84
164
229
238
244
248
243
249
213
211
183
239
251
253
224
222
249
93
90
92
96
104
106
103
107
106
108
118
114
112
107
107
114
118
108
98
81
147
217
229
237
242
247
238
244
173
162
197
251
247
250
252
246
90
97
91
98
95
115
104
98
107
103
115
112
112
102
104
102
102
110
111
95
123
186
214
226
233
238
244
232
142
139
121
206
248
241
242
242
108
109
111
112
103
107
110
112
112
111
116
109
107
104
94
92
98
98
99
96
89
147
187
206
220
221
238
187
127
107
99
134
200
230
216
189
117
110
108
123
104
106
110
121
111
101
110
106
103
98
93
95
102
118
102
66
57
104
157
182
199
205
211
129
99
95
103
106
119
195
142
102
113
106
106
123
106
111
109
102
106
104
110
105
103
98
95
100
105
115
96
48
38
69
97
117
139
161
151
88
88
77
93
100
106
153
78
67
110
92
101
108
105
111
104
90
106
107
104
97
98
98
94
103
103
90
89
79
56
61
58
49
65
70
86
95
114
119
131
148
148
137
87
45
110
94
100
102
99
110
109
85
105
115
106
103
110
103
103
110
111
97
89
101
97
77
73
62
68
51
72
96
111
131
129
125
117
96
69
59
126
103
102
121
105
109
112
104
106
109
113
115
116
102
109
117
109
98
93
109
104
92
85
81
79
80
86
97
96
108
113
93
78
74
76
84
111
101
103
108
99
102
114
107
102
109
125
127
111
117
111
111
107
112
100
114
111
102
96
94
99
103
103
96
112
109
96
100
99
88
97
96
84
87
97
92
95
86
103
110
118
102
125
119
122
127
117
95
100
103
103
100
105
99
107
109
115
108
111
117
115
117
100
96
98
120
112
105
104
96
105
101
83
97
116
125
124
109
120
105
112
113
98
89
105
110
100
92
99
114
113
98
99
104
111
102
102
118
114
87
92
132
107
97
99
110
107
111
103
104
125
114
113
107
102
105
95
87
87
93
96
95
82
81
102
105
93
109
111
99
110
102
91
105
109
96
83
102
97
94
96
105
107
109
113
95
117
102
105
92
95
115
82
81
91
98
97
83
82
101
119
104
97
93
95
91
100
100
99
107
110
98
72
100
99
93
119
107
102
109
109
102
103
106
111
85
86
93
97
87
87
99
103
94
92
95
108
97
91
95
96
89
94
92
90
104
122
107
107
99
93
105
121
104
99
92
107
92
104
87
98
80
84
87
85
87
76
90
104
95
102
102
87
76
85
85
89
74
92
95
83
74
83
103
91
91
93
120
85
78
109
83
72
84
111
86
96
119
115
94
97
89
92
88
88
93
93
90
84
104
91
100
108
75
72
77
79
67
69
98
88
95
117
105
141
88
86
100
123
92
83
100
103
94
80
91
89
99
102
82
88
90
92
84
106
107
104
113
101
89
107
102
87
79
103
90
81
89
105
110
