P2
50 64
255
25
19
20
19
18
21
21
21
17
22
20
22
21
23
21
22
20
20
21
20
20
20
21
18
20
20
20
19
21
22
20
20
21
20
21
21
20
20
19
20
18
19
20
20
20
20
21
20
21
26
28
28
31
30
27
28
30
28
25
31
35
29
32
33
31
31
32
29
32
29
27
29
30
27
28
30
29
29
30
31
27
27
27
27
30
29
29
29
28
27
30
29
26
25
25
28
33
27
29
30
29
26
25
23
23
25
26
21
26
22
25
27
28
29
25
26
27
26
27
26
27
24
26
25
28
27
24
24
25
25
23
23
26
24
25
27
26
25
23
21
23
24
22
24
22
23
22
24
22
26
27
22
24
24
23
24
22
22
21
23
21
18
24
25
25
27
24
23
26
23
21
25
24
22
24
24
21
26
22
27
17
23
25
23
24
23
24
24
22
21
20
22
22
22
18
23
23
20
22
24
24
24
21
23
20
19
25
20
19
18
23
19
23
22
20
26
26
20
22
22
23
22
17
20
22
23
21
34
83
98
105
20
22
21
21
22
24
22
18
21
22
20
19
20
17
22
21
19
15
22
24
17
19
20
19
19
21
18
20
16
19
16
22
23
17
25
25
24
26
26
23
24
25
25
34
30
35
99
106
50
26
26
23
20
21
21
20
21
20
19
19
19
19
18
18
20
20
21
18
21
25
20
20
22
18
16
21
18
18
17
17
14
19
18
19
26
23
22
20
23
20
22
23
18
20
56
74
117
120
61
31
22
23
22
24
21
20
20
20
19
18
17
22
19
23
20
24
21
17
21
23
18
15
21
16
18
17
22
17
15
17
21
18
21
20
22
20
24
20
21
29
47
60
61
106
51
19
16
8
14
21
24
21
22
25
22
20
21
20
20
19
20
26
18
18
19
17
19
20
23
24
18
18
17
17
20
18
17
19
19
19
20
17
17
21
22
20
23
25
23
22
71
47
17
31
23
19
18
28
16
20
16
24
20
21
21
17
19
21
19
20
18
18
20
21
21
20
18
20
24
22
20
21
20
18
20
21
20
15
19
17
18
19
17
19
20
21
24
20
23
18
13
19
20
23
22
30
29
32
57
97
27
21
21
23
23
21
20
19
19
19
18
16
18
17
15
18
16
16
22
23
20
19
21
19
18
22
15
20
16
18
18
22
19
18
17
16
17
15
20
23
36
42
50
31
84
82
127
132
101
117
134
26
21
21
21
19
20
21
19
20
20
20
16
16
19
17
16
15
22
20
15
20
18
20
19
19
19
18
17
19
19
20
21
17
14
28
51
89
121
150
169
175
176
165
178
182
196
198
181
174
168
131
47
20
22
24
17
19
19
18
15
16
17
17
17
19
17
18
23
22
18
20
17
19
20
17
19
18
18
18
20
18
14
36
102
125
145
164
164
169
178
184
194
201
204
199
212
213
211
201
190
184
132
31
26
23
20
20
20
18
19
17
17
19
16
16
18
22
23
24
17
17
18
17
17
16
18
18
19
16
17
28
80
132
129
146
159
163
166
172
183
190
197
208
214
206
222
220
219
209
197
185
173
69
23
21
20
20
20
19
19
17
21
19
19
18
19
19
23
22
19
21
18
19
19
22
19
19
17
16
16
66
108
124
130
133
155
172
172
178
188
191
195
206
220
218
229
232
231
226
223
207
179
162
30
23
27
21
20
23
17
15
18
19
18
18
19
19
23
22
20
21
19
20
24
23
16
17
20
19
29
67
103
129
127
130
140
166
181
182
188
190
187
193
220
224
234
231
224
223
214
207
194
176
81
19
21
21
18
21
19
18
18
17
17
19
19
20
24
25
21
17
17
20
17
20
18
19
21
19
29
69
100
116
127
133
140
153
172
178
176
176
185
190
208
213
218
218
215
212
209
203
192
185
160
22
25
22
18
19
19
18
19
21
18
17
17
15
24
22
19
17
16
21
18
23
24
24
19
23
26
61
99
117
117
127
138
153
166
173
178
191
196
210
217
225
219
213
206
213
216
212
200
180
175
41
27
19
18
18
19
21
17
18
16
18
17
13
23
22
18
19
19
16
21
22
18
24
22
17
21
49
92
129
132
130
135
154
167
171
181
183
195
206
203
214
227
227
224
222
224
217
208
182
178
72
22
21
20
17
17
18
19
18
18
18
19
19
23
22
20
20
19
21
18
21
19
20
18
21
20
52
101
134
132
131
128
152
124
99
118
104
116
118
153
168
187
226
209
214
209
206
198
181
171
83
24
25
20
19
18
18
19
19
20
19
18
20
26
23
18
16
15
17
22
23
17
20
22
19
22
68
130
137
136
129
112
85
56
77
61
34
43
40
69
86
134
205
188
176
135
121
138
135
133
78
21
17
21
21
19
19
19
17
19
17
22
20
22
22
21
16
19
18
23
23
22
19
20
16
20
81
141
134
132
106
75
116
140
141
125
98
37
46
55
62
114
177
170
77
64
57
50
101
142
80
20
21
23
18
21
20
19
17
15
17
20
16
24
24
16
23
27
25
17
14
16
19
20
24
22
83
137
133
133
88
117
116
75
32
54
46
18
44
89
115
145
188
206
88
45
26
40
99
165
167
20
22
24
22
18
20
22
18
18
19
16
19
23
22
26
36
27
25
18
52
70
32
17
22
20
74
129
123
125
104
96
83
43
127
87
149
157
69
115
145
151
193
220
106
49
83
67
46
53
126
13
21
22
21
20
21
17
21
20
17
21
18
25
23
31
29
28
21
66
92
89
151
45
18
20
68
127
133
129
129
113
121
123
131
138
146
167
178
145
139
143
171
203
189
157
162
155
162
81
92
16
22
21
22
20
16
23
21
17
20
18
18
24
28
23
25
26
20
114
110
144
123
111
33
21
55
115
130
126
137
149
172
177
159
151
172
195
192
169
150
151
156
189
196
181
153
152
164
161
79
16
23
23
21
21
17
18
18
18
19
19
17
23
29
24
26
22
23
120
116
147
162
139
95
17
63
123
130
128
147
158
184
198
201
206
206
193
188
157
161
158
156
172
190
205
224
212
197
185
89
21
25
24
20
24
20
18
21
18
17
20
18
24
32
28
29
25
19
131
120
143
148
87
118
42
107
135
122
129
134
154
181
190
199
198
193
203
184
166
153
148
154
151
195
199
220
223
218
203
91
24
21
19
21
23
23
19
18
20
23
18
21
25
32
27
30
21
23
89
125
142
123
136
133
98
100
120
117
123
132
151
183
195
200
202
196
196
198
168
146
163
163
162
209
222
213
218
221
207
117
16
24
22
21
19
23
22
21
22
22
22
19
23
43
64
50
37
28
37
119
133
114
155
143
121
95
118
125
129
138
147
165
186
187
189
196
207
196
135
149
138
130
137
168
192
194
222
215
203
139
19
25
23
21
22
24
22
21
17
19
20
20
24
28
27
35
61
69
43
91
127
121
138
142
137
94
106
113
133
137
147
159
160
169
171
198
204
141
133
89
103
118
87
141
84
144
211
206
192
143
20
24
21
19
21
23
17
21
19
19
21
20
24
31
31
26
25
27
48
81
127
127
150
145
130
95
109
120
133
141
146
149
151
158
177
198
184
147
149
120
143
130
84
142
169
183
180
215
188
133
24
23
22
21
22
26
18
21
19
19
18
18
24
82
71
69
82
74
58
65
90
131
142
155
140
99
101
119
136
144
148
142
141
163
184
199
201
155
143
139
148
145
184
211
202
216
185
209
187
114
19
23
24
21
23
22
20
20
22
21
19
20
23
156
187
191
187
179
173
163
138
152
134
134
157
98
106
119
126
146
159
137
146
161
175
185
202
188
173
188
192
215
202
210
203
206
214
197
186
105
20
29
22
22
19
24
22
21
19
18
20
21
23
176
211
204
185
160
189
192
187
188
204
85
65
98
104
125
131
144
141
130
149
163
165
169
186
176
182
184
173
175
194
193
194
197
199
191
192
90
23
27
24
23
20
22
22
21
19
20
20
19
24
166
176
170
166
152
164
185
187
201
188
140
101
97
107
117
131
142
143
130
140
158
157
145
144
129
117
101
109
125
130
137
128
157
181
187
192
73
25
26
27
24
23
19
22
21
20
22
25
20
24
145
132
146
140
121
121
173
188
150
129
130
100
93
97
122
130
141
149
127
139
154
155
106
92
127
155
181
195
198
202
212
200
141
138
195
189
56
26
26
21
22
24
22
23
25
21
18
22
17
22
74
53
73
94
93
88
107
88
81
78
71
82
99
106
112
134
142
148
126
135
148
167
166
151
139
124
114
113
91
99
134
161
201
190
182
185
47
39
34
30
27
24
21
21
22
21
25
24
23
25
67
57
70
103
84
80
84
78
73
79
86
82
97
111
112
117
135
143
126
132
144
169
167
145
141
138
148
170
164
160
154
183
193
187
182
155
32
37
40
37
36
38
38
31
30
24
25
23
19
24
47
46
52
57
58
59
62
59
70
67
73
88
102
98
115
123
124
141
140
135
138
156
166
165
166
185
170
186
202
207
208
202
196
185
184
113
62
62
46
34
30
31
38
37
40
41
35
36
32
32
42
44
48
49
52
52
46
43
51
55
48
72
99
116
98
103
123
137
145
134
134
148
159
161
177
177
168
188
227
226
215
215
200
177
178
91
87
83
87
78
59
38
31
27
34
37
44
42
52
60
42
43
43
41
35
35
44
48
50
47
47
58
104
111
131
109
96
119
132
135
137
137
133
144
169
161
158
176
190
202
202
208
189
181
104
62
56
65
90
97
95
84
79
72
61
44
44
48
46
51
44
45
41
44
42
47
51
51
52
54
57
119
108
117
131
127
109
86
110
124
122
124
132
141
159
155
141
154
163
191
187
191
181
134
53
61
67
86
89
89
91
99
108
110
105
96
90
88
81
60
52
58
55
53
57
58
62
66
63
66
67
215
115
101
128
118
116
101
75
89
110
121
115
131
146
143
139
146
147
163
170
169
128
77
75
82
83
87
91
80
79
93
110
105
110
119
135
145
143
119
72
84
88
86
94
95
98
98
93
118
131
204
221
167
102
117
125
117
95
78
67
86
100
112
113
135
139
137
138
148
155
185
157
94
95
89
92
100
107
114
111
88
89
68
75
95
123
141
152
137
74
80
79
87
99
99
103
107
117
195
195
181
220
233
212
143
108
115
109
106
105
80
62
66
82
111
129
140
134
149
174
230
187
90
97
89
105
116
125
141
145
133
138
121
113
95
88
91
119
123
119
145
151
162
166
172
182
184
199
220
220
199
208
220
232
236
229
130
105
108
127
133
135
94
55
34
34
49
147
180
217
247
251
168
141
136
145
143
148
154
152
146
151
142
144
144
153
136
107
71
173
210
206
210
209
212
207
205
217
221
222
205
219
228
224
234
233
240
206
128
101
123
135
137
123
90
81
157
200
235
249
247
246
230
154
160
157
167
161
158
158
154
156
158
161
158
157
152
149
115
178
214
208
210
211
204
206
220
220
225
229
232
190
226
232
223
216
229
237
248
178
113
114
136
136
139
189
228
250
249
250
246
243
250
218
180
177
173
167
164
157
157
162
164
162
155
150
144
132
108
177
213
209
207
211
222
231
238
241
243
246
248
239
177
220
76
29
44
73
122
218
231
129
97
133
224
246
251
249
252
251
249
232
246
248
231
198
193
190
165
159
158
158
151
143
134
124
125
119
111
194
232
229
225
247
243
248
248
250
246
247
246
250
197
209
42
33
37
32
26
25
57
120
55
136
116
108
112
131
187
240
254
207
248
251
251
251
251
244
151
135
115
123
135
115
142
123
124
120
114
205
247
247
237
247
247
248
248
249
247
248
248
250
204
177
50
32
29
31
32
29
29
25
28
26
26
29
30
29
28
55
121
137
234
250
251
250
251
246
140
108
106
121
138
110
206
236
222
215
173
207
245
237
240
248
248
251
248
248
250
247
252
247
250
157
59
33
33
32
33
32
34
28
31
31
31
30
35
36
35
35
34
23
182
250
250
251
251
247
167
104
111
102
107
116
196
186
180
249
209
208
251
238
237
246
252
248
249
249
250
251
250
251
252
238
99
28
33
32
31
31
46
70
41
33
31
33
30
29
34
35
36
47
226
250
208
211
220
172
110
110
111
112
106
107
116
107
152
248
209
209
247
251
238
231
241
244
249
249
250
251
251
251
250
252
147
29
34
34
34
36
226
249
219
141
25
28
30
32
35
31
32
61
233
252
214
197
179
95
100
118
98
91
117
106
107
107
120
241
209
203
252
246
248
250
251
252
250
249
250
251
250
251
251
251
218
42
33
32
44
108
247
251
245
230
91
30
36
32
35
35
31
92
207
250
247
206
197
151
104
139
135
135
127
104
109
110
150
247
208
197
245
250
250
249
252
251
252
250
249
250
250
250
251
252
252
68
73
185
185
229
220
251
248
250
239
91
20
34
38
35
30
112
197
252
252
232
202
197
179
116
137
130
144
121
127
114
151
247
210
207
237
246
252
251
252
252
252
253
251
251
251
253
252
249
248
201
201
253
239
251
222
220
235
244
246
247
176
92
30
26
88
129
215
250
250
251
228
210
208
152
198
134
117
128
128
133
215
249
210
210
247
239
250
252
251
251
252
253
251
251
251
251
251
248
251
246
211
249
241
246
225
202
209
247
246
245
247
255
181
129
118
157
220
250
251
252
252
250
240
174
113
184
183
197
146
229
248
250
211
208
250
244
244
251
251
251
252
252
251
252
251
250
250
250
250
252
235
229
250
242
243
239
217
238
249
249
248
248
248
246
147
198
228
246
252
251
252
251
249
250
247
246
246
250
247
248
250
250
211
207
247
250
242
246
251
252
252
253
251
252
251
251
251
250
250
251
252
238
245
249
239
247
242
228
249
252
251
251
252
248
218
218
226
251
251
251
251
251
250
251
250
251
250
250
252
251
252
252
210
205
247
246
247
240
249
252
252
252
252
252
252
252
252
250
250
252
251
246
246
251
244
250
249
235
250
252
252
252
252
251
242
227
218
250
251
252
252
252
251
251
251
251
251
251
252
252
252
252
211
201
246
243
249
249
243
250
252
252
252
252
252
252
252
251
251
252
250
248
242
252
250
251
252
237
250
253
253
252
253
251
251
235
227
248
251
251
251
252
252
251
252
252
251
252
252
251
252
251
210
149
174
182
181
182
180
181
182
183
184
184
184
184
184
183
183
184
184
185
176
184
183
180
184
178
180
184
185
184
183
182
184
177
166
183
184
184
184
185
183
183
183
184
184
184
183
183
183
184
157
