P2
81 74
255
255
255
255
255
255
255
255
255
255
255
255
255
255
255
255
255
255
255
255
255
255
255
255
255
255
255
255
255
255
255
255
255
255
255
255
255
255
255
255
255
255
255
255
255
255
255
255
255
255
255
255
255
255
255
255
255
255
255
255
255
255
255
255
255
255
255
255
255
255
255
255
255
255
255
255
255
255
255
255
255
255
255
255
255
255
255
255
255
255
255
255
255
255
255
255
255
255
255
255
255
255
255
255
255
255
255
255
255
255
255
255
255
255
255
255
255
255
255
255
255
255
255
255
255
255
255
255
255
255
255
255
255
255
255
255
255
255
255
255
255
255
255
255
255
255
255
255
255
255
255
255
255
255
255
255
255
255
255
255
255
255
255
255
255
255
255
255
255
255
255
255
255
255
255
255
255
255
255
255
255
255
255
255
255
255
255
255
255
255
255
255
255
255
255
255
255
255
255
255
255
255
255
255
255
255
255
255
255
255
255
255
255
255
255
255
255
255
255
255
255
255
255
255
255
255
255
255
255
255
255
255
255
255
255
255
255
255
255
255
255
255
255
255
255
255
255
255
255
255
255
255
255
255
255
255
255
255
255
255
255
255
255
255
255
255
255
255
255
255
255
255
255
255
255
255
255
255
255
255
255
255
255
255
255
255
255
255
255
255
255
255
255
255
255
255
255
255
255
255
255
255
255
255
255
255
255
255
255
255
255
255
255
255
255
255
255
255
255
255
255
255
255
255
255
255
255
255
255
255
255
255
255
255
255
255
255
255
255
255
255
255
255
255
255
255
255
255
255
255
255
255
255
255
255
241
241
227
227
227
193
193
192
193
157
157
157
157
157
157
157
157
157
157
157
193
192
203
234
255
255
255
255
255
255
255
255
255
255
255
255
255
255
255
255
255
255
255
255
255
255
255
255
255
255
255
255
255
255
255
255
255
255
255
255
255
255
255
255
255
255
255
255
255
255
255
255
255
255
255
248
241
203
197
157
157
157
157
157
146
146
157
146
157
157
157
157
157
157
157
157
157
157
157
157
157
157
157
146
146
157
227
255
255
255
255
255
255
255
255
255
255
255
255
255
255
255
255
255
255
255
255
255
255
255
255
255
255
255
255
255
255
255
255
255
255
255
255
255
255
255
255
255
255
255
255
255
255
234
204
157
157
146
146
157
157
157
157
157
157
157
157
157
157
157
157
157
157
157
157
157
157
157
157
157
157
157
157
157
157
157
157
146
157
234
255
255
255
255
255
255
255
255
255
255
255
255
255
255
255
255
255
255
255
255
255
255
255
255
255
255
255
255
255
255
255
255
255
255
255
255
255
255
255
255
255
255
197
157
146
146
157
157
157
157
157
157
157
157
157
157
157
157
157
157
157
157
157
157
157
157
157
157
157
157
157
157
157
157
157
157
157
157
157
157
157
215
255
255
255
255
255
255
255
255
255
255
255
255
255
255
255
255
255
255
255
255
255
255
255
255
255
255
255
255
255
255
255
255
255
255
255
255
255
255
255
227
146
146
157
157
157
157
157
157
157
157
157
157
157
157
157
157
157
157
157
157
157
157
157
157
157
157
157
157
157
157
157
157
157
157
157
157
157
157
157
157
146
197
255
255
255
255
255
255
255
255
255
255
255
255
255
255
255
255
255
255
255
255
255
255
255
255
255
255
255
255
255
255
255
255
255
255
255
255
255
203
146
157
157
157
157
157
157
157
157
157
157
157
157
157
157
157
157
157
157
157
157
157
157
157
157
157
157
157
157
157
157
157
157
157
157
157
157
157
157
157
157
157
146
157
255
255
255
255
255
255
255
255
255
255
255
255
255
255
255
255
255
255
255
255
255
255
255
255
255
255
255
255
255
255
255
255
255
255
255
203
146
157
157
157
157
157
157
157
157
157
157
157
157
157
157
157
157
157
157
157
157
157
157
157
157
157
157
157
157
157
157
157
157
157
157
157
157
157
157
157
157
157
157
157
146
157
255
255
255
255
255
255
255
255
255
255
255
255
255
255
255
255
255
255
255
255
255
255
255
255
255
255
255
255
255
255
255
255
255
203
146
157
157
157
157
157
157
157
157
157
157
157
157
157
157
157
157
157
157
157
157
157
157
157
157
157
157
157
157
157
157
157
157
157
157
157
157
157
157
157
157
157
157
157
157
157
146
157
255
255
255
255
255
255
255
255
255
255
255
255
255
255
255
255
255
255
255
255
255
255
255
255
255
255
255
255
255
255
255
203
146
157
157
157
157
157
157
157
157
157
157
157
157
157
157
157
157
157
157
157
41
102
157
157
157
157
157
157
157
157
157
157
157
157
157
157
157
157
157
157
157
157
157
157
157
157
157
157
146
157
255
255
255
255
255
255
255
255
255
255
255
255
255
255
255
255
255
255
255
255
255
255
255
255
255
255
255
255
255
203
146
157
157
157
157
157
157
157
157
157
157
157
157
157
157
157
157
157
157
157
106
57
98
66
157
157
157
106
146
157
157
157
157
157
157
157
157
157
157
157
157
157
157
157
157
157
157
157
157
157
157
157
255
255
255
255
255
255
255
255
255
255
255
255
255
255
255
255
255
255
255
255
255
255
255
255
255
255
255
227
146
157
157
157
157
157
157
157
157
157
157
157
157
157
157
157
157
157
157
157
106
87
146
98
98
51
106
66
87
66
157
157
157
157
157
157
157
157
157
106
102
146
157
157
157
157
157
157
157
157
157
157
146
197
255
255
255
255
255
255
255
255
255
255
255
255
255
255
255
255
255
255
255
255
255
255
255
255
255
255
157
157
157
157
157
157
157
157
157
157
157
157
157
157
157
157
157
157
157
157
157
146
98
135
87
98
98
66
47
98
51
146
157
157
157
157
157
157
157
157
57
135
87
106
157
157
157
157
157
157
157
157
157
157
146
221
255
255
255
255
255
255
255
255
255
255
255
255
255
255
255
255
255
255
255
255
255
255
255
255
157
157
157
157
157
157
157
157
157
157
157
157
157
157
157
157
157
157
157
157
157
157
57
98
98
135
51
57
87
41
87
85
197
157
157
157
157
157
157
157
157
87
146
135
98
41
157
157
157
157
157
157
157
157
157
157
146
241
255
255
255
255
255
255
255
255
255
255
255
255
255
255
255
255
255
255
255
255
255
255
221
146
157
157
157
157
157
157
157
157
157
157
157
157
157
157
157
157
157
157
157
157
146
98
135
57
98
87
146
106
157
146
106
57
55
85
85
106
157
106
51
102
55
146
98
135
66
157
157
157
157
157
157
157
157
157
157
157
157
255
255
255
255
255
255
255
255
255
255
255
255
255
255
255
255
255
255
255
255
255
255
157
157
157
157
157
157
157
157
157
157
157
157
157
157
157
157
157
157
157
157
157
157
157
51
98
135
41
87
142
102
55
85
106
157
157
157
157
142
106
106
98
98
106
87
135
98
47
146
157
157
157
157
157
157
157
157
157
157
157
157
255
255
255
255
255
255
255
255
255
255
255
255
255
255
255
255
255
255
255
255
197
146
157
157
157
157
157
157
157
157
157
157
157
157
157
157
157
157
157
157
157
157
157
157
106
85
106
77
51
146
41
106
157
157
157
157
157
157
157
91
106
98
98
66
98
135
98
98
66
66
106
157
157
157
157
157
157
157
157
157
146
221
255
255
255
255
255
255
255
255
255
255
255
255
255
255
255
255
255
255
241
146
157
157
157
157
157
157
157
157
157
157
157
157
157
157
157
157
157
157
157
157
157
157
157
157
157
157
157
157
106
77
157
157
157
157
157
157
157
157
157
4
98
135
135
135
135
51
135
135
98
77
157
157
157
157
157
157
157
157
157
157
146
255
255
255
255
255
255
255
255
255
255
255
255
255
255
255
255
255
255
193
157
157
157
157
157
157
157
157
157
157
157
157
157
157
157
157
157
157
157
157
157
157
157
157
157
157
157
157
157
66
106
157
157
157
157
157
157
157
157
157
51
47
51
57
57
47
98
135
98
77
157
157
157
157
157
157
157
157
157
157
157
157
157
255
255
255
255
255
255
255
255
255
255
255
255
255
255
255
255
241
157
157
157
157
157
157
157
157
157
157
157
157
157
157
157
157
157
157
157
157
157
157
157
157
157
157
157
157
157
157
77
41
146
157
157
157
157
157
157
157
157
106
57
98
186
186
149
57
135
66
157
157
157
157
157
157
157
157
157
157
157
157
157
146
215
255
255
255
255
255
255
255
255
255
255
255
255
255
255
255
192
157
157
157
157
157
157
157
157
157
157
157
157
157
157
157
157
157
157
157
157
157
157
157
157
157
157
157
157
157
157
146
47
98
77
157
157
157
157
157
157
157
157
55
66
98
186
197
87
135
57
157
157
157
157
157
157
157
157
157
157
157
157
157
157
157
241
255
255
255
255
255
255
255
255
255
255
255
255
255
248
146
157
157
157
157
157
157
157
157
157
157
157
157
157
157
157
157
157
109
95
77
95
95
85
95
157
106
66
57
57
106
157
146
57
119
55
157
157
157
157
157
157
157
157
85
106
102
98
57
146
51
157
157
157
157
157
157
157
157
157
157
157
157
157
157
157
197
255
255
255
255
255
255
255
255
255
255
255
255
255
192
157
157
157
157
157
157
157
157
157
157
157
157
157
157
157
157
106
57
105
153
156
156
156
156
105
58
58
156
156
204
153
57
66
109
98
98
146
157
157
157
157
157
157
157
85
146
157
146
41
51
146
157
157
157
157
157
157
157
157
157
157
157
157
157
157
157
146
255
255
255
255
255
255
255
255
255
255
255
255
241
146
157
157
157
157
157
157
157
157
157
157
157
157
157
157
157
66
95
156
156
156
156
156
156
156
156
204
156
62
156
156
167
156
98
146
28
98
57
106
157
157
157
106
157
157
85
157
157
157
157
157
157
157
157
157
157
157
157
157
157
157
157
157
157
157
157
157
146
197
255
255
255
255
255
255
255
255
255
255
255
197
146
157
157
157
157
157
157
157
157
157
157
157
157
157
146
66
105
156
156
156
156
156
156
156
156
156
156
156
156
98
156
156
167
98
109
156
57
146
47
95
157
66
98
57
146
34
157
157
157
157
157
157
157
157
157
157
157
157
157
157
157
157
157
157
157
157
157
157
146
248
255
255
255
255
255
255
255
255
255
255
157
157
157
157
157
157
157
157
157
157
157
157
157
157
146
51
105
156
156
156
156
156
156
156
156
156
156
156
156
156
156
47
204
156
156
51
204
109
98
98
146
95
57
135
98
17
102
55
157
157
157
157
157
146
146
157
157
157
95
77
157
157
157
157
157
157
157
157
157
146
197
255
255
255
255
255
255
255
255
255
241
146
157
157
157
157
157
157
157
157
157
157
157
157
157
66
105
156
156
156
156
156
156
156
156
156
156
156
156
153
156
207
105
98
204
204
12
204
156
57
98
146
57
22
98
98
77
157
106
51
66
77
85
51
28
47
28
106
157
51
98
55
157
157
157
157
157
157
157
157
157
157
255
255
255
255
255
255
255
255
255
193
146
157
157
157
157
157
157
157
157
157
157
157
157
106
105
156
156
156
156
156
156
156
156
109
109
98
109
146
193
193
204
204
57
47
47
47
156
47
146
47
8
160
109
58
51
41
157
157
197
146
146
106
106
95
51
47
98
28
98
98
41
66
77
157
157
157
157
157
157
157
146
227
255
255
255
255
255
255
255
255
157
157
157
157
157
157
157
157
157
157
157
157
157
157
66
156
156
156
156
156
109
62
62
98
109
109
109
109
109
95
62
109
109
47
98
109
98
8
146
135
109
47
197
98
204
12
87
66
91
57
51
95
157
157
157
106
47
182
62
98
98
62
135
135
57
157
157
157
157
157
157
157
192
255
255
255
255
255
255
255
234
146
157
157
157
157
157
157
157
157
157
157
157
157
146
105
156
156
156
98
62
109
156
156
204
156
156
167
156
167
164
164
105
41
57
135
98
47
135
135
146
146
47
47
146
204
98
87
135
87
98
135
57
146
157
106
57
146
146
87
98
98
135
98
135
135
85
157
157
157
157
157
157
157
248
255
255
255
255
255
255
203
146
157
157
157
157
157
157
157
157
157
157
157
157
91
156
156
57
62
156
156
204
156
156
156
156
156
156
156
156
197
197
204
105
41
98
197
149
135
146
109
4
98
109
105
57
57
8
98
135
98
98
22
146
146
47
146
135
135
87
98
98
135
51
41
57
51
157
157
157
157
157
157
146
234
255
255
255
255
255
255
157
157
157
157
157
157
157
157
157
157
157
157
157
157
98
156
47
156
156
156
156
156
156
156
156
156
156
156
156
156
204
204
204
167
51
135
146
149
135
135
28
98
41
146
204
204
156
156
47
57
135
57
157
157
85
135
135
146
98
57
98
135
57
146
197
51
146
157
157
157
157
157
157
146
204
255
255
255
255
255
255
157
157
157
157
157
157
157
157
157
157
157
157
157
146
41
58
156
156
156
156
156
156
156
156
156
156
156
156
156
204
204
204
207
204
98
146
197
197
160
197
98
62
47
156
153
156
204
156
204
109
41
66
106
157
106
12
57
87
135
47
98
98
98
98
95
146
157
157
157
157
157
157
157
157
193
255
255
255
255
255
234
157
157
157
157
157
157
157
157
157
157
157
157
157
142
47
156
109
156
156
156
156
156
156
156
156
156
156
156
204
197
160
98
98
98
47
109
160
98
146
135
109
62
98
95
156
156
156
156
156
204
62
98
51
146
157
106
135
135
34
98
135
98
146
41
157
157
157
157
157
157
157
157
157
157
157
255
255
255
255
255
221
146
157
157
157
157
157
157
157
157
157
157
157
157
95
109
109
156
156
156
156
156
156
156
156
156
156
156
109
62
95
105
156
156
156
193
98
98
62
87
146
57
62
57
98
58
98
156
167
156
156
156
51
98
106
157
157
85
146
51
98
98
98
146
87
146
157
157
157
157
157
157
157
157
157
157
255
255
255
255
255
193
157
157
157
157
157
157
157
157
157
157
157
157
157
98
109
156
156
156
156
156
156
156
156
156
156
156
62
109
204
204
156
156
156
156
153
204
47
47
62
62
34
57
204
204
207
156
95
58
156
156
156
98
28
146
157
157
157
22
98
47
98
98
182
51
146
157
157
157
157
157
157
157
157
157
146
234
255
255
255
255
157
157
157
157
157
157
157
157
157
157
157
157
157
106
95
109
156
156
156
156
156
156
156
156
156
98
62
156
156
156
156
156
156
156
204
156
204
98
156
204
204
146
98
167
156
197
197
167
156
58
156
156
156
85
157
157
157
157
106
84
135
98
87
66
102
157
157
157
157
157
157
157
157
157
157
146
241
255
255
255
255
157
157
157
157
157
157
157
157
157
157
157
157
157
106
105
156
156
156
156
156
156
156
156
156
62
98
204
156
156
156
156
156
156
153
237
156
204
109
156
153
197
204
62
204
156
156
156
156
156
156
58
156
156
66
157
157
157
157
157
57
87
41
106
157
157
157
157
157
157
157
157
157
157
157
157
146
215
255
255
255
255
146
157
157
157
157
157
157
157
157
157
157
157
157
91
105
156
156
156
156
156
156
156
156
98
98
204
156
156
156
156
156
156
156
204
197
153
204
109
156
153
197
204
98
156
156
156
156
156
156
167
156
62
156
66
157
157
157
157
157
157
106
106
106
157
157
157
157
157
157
157
157
157
157
157
157
157
204
255
255
255
255
146
157
157
157
157
157
157
157
157
157
157
157
157
119
105
156
156
156
156
156
156
156
109
62
156
156
156
156
156
156
156
156
156
193
156
156
204
109
156
156
193
204
105
109
156
156
156
156
204
98
109
47
156
98
146
157
157
157
66
57
57
146
95
157
157
157
157
157
157
157
157
157
157
157
157
157
204
255
255
255
255
146
157
157
157
157
157
157
157
157
157
157
157
157
95
105
156
156
156
156
156
156
156
51
156
156
156
156
156
156
156
156
156
156
156
156
156
204
109
156
156
156
156
156
62
156
156
156
204
109
58
204
146
95
62
146
157
157
95
91
22
157
157
55
157
157
157
157
157
157
157
157
157
157
157
157
157
204
255
255
255
255
146
157
157
157
157
157
157
157
157
157
157
157
157
106
105
156
156
156
156
156
156
62
146
156
156
156
156
156
156
156
156
156
156
156
156
156
167
98
156
156
156
156
204
62
156
156
156
109
34
62
109
156
58
66
157
157
157
95
146
106
157
106
106
157
157
157
157
157
157
157
157
157
157
157
157
157
204
255
255
255
255
146
157
157
157
157
157
157
157
157
157
157
157
157
146
98
156
156
156
156
156
156
47
156
156
156
156
156
156
156
156
156
156
156
156
156
156
156
62
204
156
156
156
204
98
156
156
156
95
109
109
109
156
47
55
157
157
157
142
55
106
106
28
157
157
157
157
157
157
157
157
157
157
157
157
157
146
204
255
255
255
255
157
157
157
157
157
157
157
157
157
157
157
157
157
157
66
156
156
156
156
156
62
109
156
156
156
156
156
156
156
156
156
156
156
156
156
156
156
57
204
156
156
156
204
109
146
156
146
109
156
98
156
156
47
142
157
157
157
157
157
150
55
106
157
157
157
157
157
157
157
157
157
157
157
157
157
157
204
255
255
255
255
157
157
157
157
157
157
157
157
157
102
106
157
157
157
106
109
156
156
156
146
47
156
156
156
156
156
156
156
156
156
156
156
156
156
156
156
156
98
167
156
156
156
156
109
109
156
156
98
204
156
156
156
62
146
157
157
157
157
146
57
119
157
157
157
157
157
157
157
157
157
157
157
157
157
157
157
204
255
255
255
255
204
146
157
157
157
157
157
157
157
51
98
57
146
157
157
66
156
156
156
109
109
156
156
156
156
156
156
156
156
156
156
156
156
156
156
167
109
109
156
156
156
156
156
146
109
156
156
109
62
156
156
156
98
157
157
106
106
55
91
157
157
157
157
157
157
157
157
157
157
157
157
157
157
157
157
146
234
255
255
255
255
208
146
157
157
157
157
157
157
157
57
135
98
85
106
66
95
105
156
156
98
109
156
109
156
156
156
156
156
156
156
156
156
156
156
156
156
47
156
156
156
156
156
204
109
98
156
156
156
146
47
98
58
41
55
85
95
106
157
157
157
157
157
157
157
157
157
157
157
157
157
157
157
157
157
157
146
255
255
255
255
255
241
146
157
157
157
157
157
157
157
57
135
98
57
66
87
106
66
156
156
62
156
146
156
156
156
156
156
156
156
156
156
156
156
156
156
146
98
156
156
156
204
156
62
47
62
58
62
109
62
62
62
58
66
146
157
157
157
157
157
157
157
157
157
157
157
157
157
157
157
157
157
157
157
157
157
157
255
255
255
255
255
255
157
157
157
157
157
157
157
106
84
135
98
135
135
57
146
106
95
156
57
156
109
156
156
156
156
156
156
156
156
156
156
156
156
156
62
156
156
156
204
98
62
156
58
156
156
62
22
146
146
156
62
146
157
157
157
157
157
157
157
157
157
157
157
157
157
157
157
157
157
157
157
157
157
146
221
255
255
255
255
255
255
192
157
157
157
157
157
142
34
135
98
98
98
135
55
157
157
55
105
62
156
109
156
156
156
156
156
156
156
156
156
156
156
156
109
98
156
156
156
109
98
156
156
62
156
98
109
109
98
156
105
106
157
157
157
157
157
157
157
157
157
157
157
157
157
157
157
157
157
157
157
157
157
157
157
255
255
255
255
255
255
255
227
157
157
157
157
157
55
98
135
98
98
87
57
57
66
66
106
102
28
156
109
146
156
156
156
156
156
156
156
156
156
156
156
58
156
156
156
156
62
156
156
146
98
156
98
109
58
109
109
55
157
157
157
106
85
157
157
57
51
85
157
157
106
66
95
146
157
157
157
157
157
157
157
157
255
255
255
255
255
255
255
255
157
157
157
157
157
95
47
87
57
41
57
98
135
146
98
34
106
106
98
146
109
156
156
156
156
156
156
156
156
156
156
109
98
156
156
156
146
98
156
156
47
156
156
156
98
109
109
41
157
146
157
106
57
87
95
77
98
135
98
77
157
57
135
135
51
106
157
157
157
157
157
146
234
255
255
255
255
255
255
255
255
204
146
157
157
157
157
77
98
135
98
51
135
66
135
51
157
106
55
77
156
109
156
156
156
156
156
156
156
156
156
109
51
156
156
156
156
156
156
156
156
51
156
156
156
156
98
28
28
17
66
4
47
135
135
98
98
98
135
51
106
106
135
146
146
135
17
157
157
157
157
157
157
255
255
255
255
255
255
255
255
255
248
157
157
157
157
146
4
58
135
57
197
55
57
98
95
106
157
55
146
34
156
109
156
156
156
156
156
156
156
109
47
156
156
156
156
156
156
109
156
51
156
156
156
95
28
106
157
157
106
87
135
57
51
98
135
98
98
135
57
66
98
98
135
135
77
157
157
157
157
157
146
203
255
255
255
255
255
255
255
255
255
255
197
146
157
157
157
85
146
77
98
84
146
142
55
91
157
157
106
106
157
77
105
109
156
156
156
156
156
109
47
156
156
156
156
156
156
109
156
47
95
95
57
85
146
157
157
157
157
157
57
135
98
98
47
87
98
135
135
135
98
98
98
98
87
106
157
157
157
157
157
146
255
255
255
255
255
255
255
255
255
255
255
255
146
157
157
157
157
157
57
98
51
157
157
157
157
157
157
146
55
157
157
106
77
57
47
41
77
51
17
109
156
156
156
156
156
146
105
62
55
106
106
146
157
157
157
157
157
157
146
87
135
98
98
135
87
51
51
51
87
135
98
98
98
98
95
157
157
157
157
157
203
255
255
255
255
255
255
255
255
255
255
255
255
227
146
157
157
157
157
106
55
157
157
157
157
157
157
157
157
146
57
85
85
95
55
106
146
157
157
106
95
55
77
41
66
51
66
55
106
157
157
157
157
157
157
157
157
157
157
66
135
135
135
135
146
98
135
135
57
51
51
98
98
98
135
77
157
157
157
157
146
255
255
255
255
255
255
255
255
255
255
255
255
255
255
157
157
157
157
157
157
157
157
157
157
157
157
157
157
157
157
157
157
106
106
157
157
157
157
157
157
157
157
157
157
157
157
157
157
157
157
157
157
157
157
157
157
157
157
157
66
98
87
57
51
135
98
98
66
186
186
186
66
98
135
146
51
157
157
157
157
204
255
255
255
255
255
255
255
255
255
255
255
255
255
255
255
157
157
157
157
157
157
157
157
157
157
157
157
157
157
157
157
157
157
157
157
157
157
157
157
157
157
157
157
157
157
157
157
157
157
157
157
157
157
157
157
157
157
157
157
157
95
106
157
85
135
98
98
146
138
138
138
138
17
66
66
146
157
157
157
157
255
255
255
255
255
255
255
255
255
255
255
255
255
255
255
255
227
146
157
157
157
157
157
157
157
157
157
157
157
157
157
157
157
157
157
157
157
157
157
157
157
157
157
157
157
157
157
157
157
157
157
157
157
157
157
157
157
157
157
157
157
157
157
146
66
58
41
77
106
106
106
106
106
146
146
157
157
157
157
157
241
255
255
255
255
255
255
255
255
255
255
255
255
255
255
255
255
255
204
146
157
157
157
157
157
157
157
157
157
157
157
157
157
157
157
157
157
157
157
157
157
157
157
157
157
157
157
157
157
157
157
157
157
157
157
157
157
157
157
157
157
157
157
157
157
146
106
146
157
157
157
157
157
157
157
157
157
157
146
157
241
255
255
255
255
255
255
255
255
255
255
255
255
255
255
255
255
255
255
255
204
146
157
157
157
157
157
157
157
157
157
157
157
157
157
157
157
157
157
157
157
157
157
157
157
157
157
157
157
157
157
157
157
157
157
157
157
157
157
157
157
157
157
157
157
157
157
157
157
157
157
157
157
157
157
157
157
146
157
227
255
255
255
255
255
255
255
255
255
255
255
255
255
255
255
255
255
255
255
255
255
255
204
146
157
157
157
157
157
157
157
157
157
157
157
157
157
157
157
157
157
157
157
157
157
157
157
157
157
157
157
157
157
157
157
157
157
157
157
157
157
157
157
157
157
157
157
157
157
157
157
157
157
157
157
157
146
157
234
255
255
255
255
255
255
255
255
255
255
255
255
255
255
255
255
255
255
255
255
255
255
255
255
255
234
157
146
157
157
157
157
157
157
157
157
157
157
157
157
157
157
157
157
157
157
157
157
157
157
157
157
157
157
157
157
157
157
157
157
157
157
157
157
157
157
157
157
157
157
157
157
157
157
157
157
157
157
234
255
255
255
255
255
255
255
255
255
255
255
255
255
255
255
255
255
255
255
255
255
255
255
255
255
255
255
255
255
215
157
157
146
146
146
146
146
146
146
157
157
157
157
157
157
157
157
157
157
157
157
157
157
157
157
157
157
157
157
157
157
157
157
157
157
157
157
157
157
157
157
157
157
157
157
157
157
157
234
255
255
255
255
255
255
255
255
255
255
255
255
255
255
255
255
255
255
255
255
255
255
255
255
255
255
255
255
255
255
255
255
255
234
221
221
221
221
215
215
221
193
193
193
192
157
157
146
146
146
146
146
157
157
157
157
157
157
157
157
157
157
157
157
157
157
157
157
157
157
157
146
157
146
146
146
157
204
241
255
255
255
255
255
255
255
255
255
255
255
255
255
255
255
255
255
255
255
255
255
255
255
255
255
255
255
255
255
255
255
255
255
255
255
255
255
255
255
255
255
255
255
255
255
255
255
255
255
255
234
234
204
204
204
157
157
146
146
146
146
146
146
146
146
146
146
146
157
157
157
157
192
204
204
234
234
255
255
255
255
255
255
255
255
255
255
255
255
255
255
255
255
255
255
255
255
255
255
255
255
255
255
255
255
255
255
255
255
255
255
255
255
255
255
255
255
255
255
255
255
255
255
255
255
255
255
255
255
255
255
255
255
255
255
255
255
255
255
255
255
255
255
255
255
255
255
255
255
255
255
255
255
255
255
255
255
255
255
255
255
255
255
255
255
255
255
255
255
255
255
255
255
255
255
255
255
255
255
255
255
255
255
255
255
255
255
255
255
255
255
255
255
255
255
255
255
255
255
255
255
255
255
255
255
255
255
255
255
255
255
255
255
255
255
255
255
255
255
255
255
255
255
255
255
255
255
255
255
255
255
255
255
255
255
255
255
255
255
255
255
255
255
255
255
255
255
255
255
255
255
255
255
255
255
255
255
255
255
255
255
255
255
255
255
255
255
255
255
255
255
255
255
255
255
255
255
255
255
255
255
255
255
255
255
255
255
255
255
255
255
255
255
255
255
255
255
255
255
255
255
255
255
255
255
255
255
255
255
255
255
255
255
255
255
255
255
255
255
255
255
255
255
255
255
255
255
255
255
255
255
255
255
255
255
255
255
255
255
255
255
255
255
255
255
255
255
255
255
255
255
255
255
255
255
255
255
255
255
255
255
255
255
255
255
255
255
255
255
255
255
255
255
255
255
255
255
255
255
255
255
255
255
255
255
255
255
255
255
255
255
255
255
255
255
255
255
255
255
255
255
255
255
255
255
255
255
255
255
255
255
255
255
255
255
255
255
255
255
255
255
255
255
255
255
